<?xml version="1.0" encoding="UTF-8"?>
<svg width="1200" height="1000" xmlns="http://www.w3.org/2000/svg">
  <!-- Background -->
  <rect width="1200" height="1000" fill="#f8f9fa" stroke="#e9ecef" stroke-width="2"/>

  <!-- Header -->
  <rect x="20" y="20" width="1160" height="80" fill="#ffffff" stroke="#dee2e6" stroke-width="1"/>
  <text x="40" y="50" font-family="Arial" font-size="18" font-weight="bold" fill="#333">오늘 뭐 먹지?</text>
  <text x="1020" y="50" font-family="Arial" font-size="14" fill="#333">김민지님</text>
  <rect x="1100" y="35" width="60" height="30" fill="#dc3545" stroke="#c82333" stroke-width="1" rx="4"/>
  <text x="1130" y="55" font-family="Arial" font-size="12" fill="#ffffff" text-anchor="middle">로그아웃</text>

  <!-- Navigation -->
  <rect x="20" y="120" width="1160" height="50" fill="#ffffff" stroke="#dee2e6" stroke-width="1"/>
  <text x="80" y="150" font-family="Arial" font-size="12" fill="#333">홈</text>
  <text x="160" y="150" font-family="Arial" font-size="12" fill="#333">냉장고 관리</text>
  <text x="260" y="150" font-family="Arial" font-size="12" fill="#333">레시피 검색</text>
  <rect x="340" y="135" width="80" height="20" fill="#007bff" stroke="#0056b3" stroke-width="1" rx="2"/>
  <text x="380" y="150" font-family="Arial" font-size="12" fill="#ffffff" text-anchor="middle">커뮤니티</text>
  <text x="460" y="150" font-family="Arial" font-size="12" fill="#333">마이페이지</text>

  <!-- Page Title & Actions -->
  <text x="40" y="210" font-family="Arial" font-size="24" font-weight="bold" fill="#333">커뮤니티</text>
  <rect x="900" y="185" width="120" height="35" fill="#28a745" stroke="#1e7e34" stroke-width="1" rx="4"/>
  <text x="960" y="208" font-family="Arial" font-size="12" fill="#ffffff" text-anchor="middle">후기 작성</text>
  <rect x="1040" y="185" width="120" height="35" fill="#007bff" stroke="#0056b3" stroke-width="1" rx="4"/>
  <text x="1100" y="208" font-family="Arial" font-size="12" fill="#ffffff" text-anchor="middle">레시피 공유</text>

  <!-- Filter Tabs -->
  <rect x="40" y="240" width="1120" height="50" fill="#ffffff" stroke="#dee2e6" stroke-width="1"/>
  <rect x="60" y="252" width="80" height="26" fill="#007bff" stroke="#0056b3" stroke-width="1" rx="4"/>
  <text x="100" y="270" font-family="Arial" font-size="12" fill="#ffffff" text-anchor="middle">전체</text>
  <rect x="160" y="252" width="80" height="26" fill="#ffffff" stroke="#dee2e6" stroke-width="1" rx="4"/>
  <text x="200" y="270" font-family="Arial" font-size="12" fill="#333" text-anchor="middle">인기 후기</text>
  <rect x="260" y="252" width="80" height="26" fill="#ffffff" stroke="#dee2e6" stroke-width="1" rx="4"/>
  <text x="300" y="270" font-family="Arial" font-size="12" fill="#333" text-anchor="middle">새 레시피</text>
  <rect x="360" y="252" width="80" height="26" fill="#ffffff" stroke="#dee2e6" stroke-width="1" rx="4"/>
  <text x="400" y="270" font-family="Arial" font-size="12" fill="#333" text-anchor="middle">질문</text>
  <rect x="460" y="252" width="80" height="26" fill="#ffffff" stroke="#dee2e6" stroke-width="1" rx="4"/>
  <text x="500" y="270" font-family="Arial" font-size="12" fill="#333" text-anchor="middle">팁 공유</text>

  <!-- Search Bar -->
  <rect x="800" y="252" width="200" height="26" fill="#f8f9fa" stroke="#dee2e6" stroke-width="1" rx="4"/>
  <text x="815" y="270" font-family="Arial" font-size="12" fill="#6c757d">검색어를 입력하세요...</text>
  <rect x="1010" y="252" width="60" height="26" fill="#007bff" stroke="#0056b3" stroke-width="1" rx="4"/>
  <text x="1040" y="270" font-family="Arial" font-size="12" fill="#ffffff" text-anchor="middle">검색</text>

  <!-- Popular Reviews Section -->
  <text x="40" y="330" font-family="Arial" font-size="18" font-weight="bold" fill="#333">인기 후기</text>

  <!-- Review Card 1 -->
  <rect x="40" y="350" width="560" height="150" fill="#ffffff" stroke="#dee2e6" stroke-width="1" rx="8"/>
  <rect x="60" y="370" width="80" height="80" fill="#f8f9fa" stroke="#dee2e6" stroke-width="1" rx="4"/>
  <text x="100" y="415" font-family="Arial" font-size="10" fill="#6c757d" text-anchor="middle">[완성 사진]</text>

  <text x="160" y="385" font-family="Arial" font-size="16" font-weight="bold" fill="#333">김치볶음밥 만들어봤어요!</text>
  <text x="160" y="405" font-family="Arial" font-size="12" fill="#6c757d">요리초보님 | 2시간 전 | ⭐⭐⭐⭐⭐ 5.0</text>
  <text x="160" y="425" font-family="Arial" font-size="12" fill="#333">처음 만들어봤는데 정말 맛있네요! 김치가 적당히 신 게 포인트인 것 같아요.</text>
  <text x="160" y="445" font-family="Arial" font-size="12" fill="#333">다음엔 스팸도 넣어서 만들어볼 예정이에요. 추천 레시피입니다! 👍</text>

  <rect x="450" y="370" width="60" height="25" fill="#ffc107" stroke="#e0a800" stroke-width="1" rx="4"/>
  <text x="480" y="387" font-family="Arial" font-size="11" fill="#333" text-anchor="middle">❤️ 24</text>
  <rect x="520" y="370" width="60" height="25" fill="#f8f9fa" stroke="#dee2e6" stroke-width="1" rx="4"/>
  <text x="550" y="387" font-family="Arial" font-size="11" fill="#333" text-anchor="middle">💬 12</text>

  <!-- Review Card 2 -->
  <rect x="620" y="350" width="560" height="150" fill="#ffffff" stroke="#dee2e6" stroke-width="1" rx="8"/>
  <rect x="640" y="370" width="80" height="80" fill="#f8f9fa" stroke="#dee2e6" stroke-width="1" rx="4"/>
  <text x="680" y="415" font-family="Arial" font-size="10" fill="#6c757d" text-anchor="middle">[완성 사진]</text>

  <text x="740" y="385" font-family="Arial" font-size="16" font-weight="bold" fill="#333">파스타 레시피 개선 버전</text>
  <text x="740" y="405" font-family="Arial" font-size="12" fill="#6c757d">이탈리아셰프님 | 4시간 전 | ⭐⭐⭐⭐⭐ 4.8</text>
  <text x="740" y="425" font-family="Arial" font-size="12" fill="#333">기존 토마토 파스타에 바질과 모짜렐라 치즈를 추가했더니 훨씬 맛있어졌어요!</text>
  <text x="740" y="445" font-family="Arial" font-size="12" fill="#333">치즈는 마지막에 넣는 것이 포인트입니다. 레시피 공유드려요! 📝</text>

  <rect x="1030" y="370" width="60" height="25" fill="#ffc107" stroke="#e0a800" stroke-width="1" rx="4"/>
  <text x="1060" y="387" font-family="Arial" font-size="11" fill="#333" text-anchor="middle">❤️ 56</text>
  <rect x="1100" y="370" width="60" height="25" fill="#f8f9fa" stroke="#dee2e6" stroke-width="1" rx="4"/>
  <text x="1130" y="387" font-family="Arial" font-size="11" fill="#333" text-anchor="middle">💬 18</text>

  <!-- New Recipes Section -->
  <text x="40" y="540" font-family="Arial" font-size="18" font-weight="bold" fill="#333">새로운 레시피</text>

  <!-- Recipe Cards Row -->
  <rect x="40" y="560" width="270" height="180" fill="#ffffff" stroke="#dee2e6" stroke-width="1" rx="8"/>
  <rect x="60" y="580" width="230" height="100" fill="#f8f9fa" stroke="#dee2e6" stroke-width="1" rx="4"/>
  <text x="175" y="635" font-family="Arial" font-size="12" fill="#6c757d" text-anchor="middle">[레시피 이미지]</text>
  <text x="175" y="700" font-family="Arial" font-size="14" font-weight="bold" fill="#333" text-anchor="middle">유부초밥</text>
  <text x="175" y="720" font-family="Arial" font-size="12" fill="#6c757d" text-anchor="middle">맛있는밥상님 | 30분 | 보통</text>

  <rect x="330" y="560" width="270" height="180" fill="#ffffff" stroke="#dee2e6" stroke-width="1" rx="8"/>
  <rect x="350" y="580" width="230" height="100" fill="#f8f9fa" stroke="#dee2e6" stroke-width="1" rx="4"/>
  <text x="465" y="635" font-family="Arial" font-size="12" fill="#6c757d" text-anchor="middle">[레시피 이미지]</text>
  <text x="465" y="700" font-family="Arial" font-size="14" font-weight="bold" fill="#333" text-anchor="middle">연어 샐러드</text>
  <text x="465" y="720" font-family="Arial" font-size="12" fill="#6c757d" text-anchor="middle">건강요리사님 | 15분 | 쉬움</text>

  <rect x="620" y="560" width="270" height="180" fill="#ffffff" stroke="#dee2e6" stroke-width="1" rx="8"/>
  <rect x="640" y="580" width="230" height="100" fill="#f8f9fa" stroke="#dee2e6" stroke-width="1" rx="4"/>
  <text x="755" y="635" font-family="Arial" font-size="12" fill="#6c757d" text-anchor="middle">[레시피 이미지]</text>
  <text x="755" y="700" font-family="Arial" font-size="14" font-weight="bold" fill="#333" text-anchor="middle">미소라멘</text>
  <text x="755" y="720" font-family="Arial" font-size="12" fill="#6c757d" text-anchor="middle">라멘마스터님 | 45분 | 어려움</text>

  <rect x="910" y="560" width="270" height="180" fill="#ffffff" stroke="#dee2e6" stroke-width="1" rx="8"/>
  <rect x="930" y="580" width="230" height="100" fill="#f8f9fa" stroke="#dee2e6" stroke-width="1" rx="4"/>
  <text x="1045" y="635" font-family="Arial" font-size="12" fill="#6c757d" text-anchor="middle">[레시피 이미지]</text>
  <text x="1045" y="700" font-family="Arial" font-size="14" font-weight="bold" fill="#333" text-anchor="middle">딸기 케이크</text>
  <text x="1045" y="720" font-family="Arial" font-size="12" fill="#6c757d" text-anchor="middle">베이킹러버님 | 2시간 | 어려움</text>

  <!-- Q&A Section -->
  <text x="40" y="780" font-family="Arial" font-size="18" font-weight="bold" fill="#333">질문 &amp; 답변</text>

  <!-- Q&A Item 1 -->
  <rect x="40" y="800" width="560" height="80" fill="#ffffff" stroke="#dee2e6" stroke-width="1" rx="8"/>
  <rect x="50" y="810" width="30" height="30" fill="#ffc107" stroke="#e0a800" stroke-width="1" rx="4"/>
  <text x="65" y="830" font-family="Arial" font-size="14" fill="#333" text-anchor="middle" font-weight="bold">Q</text>
  <text x="100" y="820" font-family="Arial" font-size="14" font-weight="bold" fill="#333">계란찜이 너무 딱딱하게 나와요 ㅠㅠ</text>
  <text x="100" y="840" font-family="Arial" font-size="12" fill="#6c757d">요리초보자님 | 1시간 전</text>
  <text x="100" y="860" font-family="Arial" font-size="12" fill="#333">물과 계란 비율을 어떻게 맞춰야 부드럽게 나올까요?</text>
  <rect x="520" y="810" width="60" height="20" fill="#28a745" stroke="#1e7e34" stroke-width="1" rx="2"/>
  <text x="550" y="825" font-family="Arial" font-size="10" fill="#ffffff" text-anchor="middle">답변 3개</text>

  <!-- Q&A Item 2 -->
  <rect x="620" y="800" width="560" height="80" fill="#ffffff" stroke="#dee2e6" stroke-width="1" rx="8"/>
  <rect x="630" y="810" width="30" height="30" fill="#ffc107" stroke="#e0a800" stroke-width="1" rx="4"/>
  <text x="645" y="830" font-family="Arial" font-size="14" fill="#333" text-anchor="middle" font-weight="bold">Q</text>
  <text x="680" y="820" font-family="Arial" font-size="14" font-weight="bold" fill="#333">파스타 면이 눌어붙지 않는 비법이 있나요?</text>
  <text x="680" y="840" font-family="Arial" font-size="12" fill="#6c757d">파스타러버님 | 3시간 전</text>
  <text x="680" y="860" font-family="Arial" font-size="12" fill="#333">매번 면이 눌어붙어서 고민이에요.</text>
  <rect x="1100" y="810" width="60" height="20" fill="#28a745" stroke="#1e7e34" stroke-width="1" rx="2"/>
  <text x="1130" y="825" font-family="Arial" font-size="10" fill="#ffffff" text-anchor="middle">답변 7개</text>

  <!-- Tips Section -->
  <text x="40" y="920" font-family="Arial" font-size="18" font-weight="bold" fill="#333">요리 팁 &amp; 노하우</text>

  <!-- Tips Cards -->
  <rect x="40" y="940" width="360" height="50" fill="#fff3cd" stroke="#ffeaa7" stroke-width="1" rx="8"/>
  <text x="60" y="960" font-family="Arial" font-size="14" font-weight="bold" fill="#856404">💡 오늘의 팁</text>
  <text x="60" y="975" font-family="Arial" font-size="12" fill="#856404">마늘 까는 법: 칼등으로 눌러 으깨면 껍질이 쉽게 벗겨져요!</text>

  <rect x="420" y="940" width="360" height="50" fill="#d1ecf1" stroke="#b8daff" stroke-width="1" rx="8"/>
  <text x="440" y="960" font-family="Arial" font-size="14" font-weight="bold" fill="#0c5460">🔥 인기 팁</text>
  <text x="440" y="975" font-family="Arial" font-size="12" fill="#0c5460">양파 썰 때 냉장고에 10분 넣어두면 눈물이 안 나요!</text>

  <rect x="800" y="940" width="360" height="50" fill="#d4edda" stroke="#c3e6cb" stroke-width="1" rx="8"/>
  <text x="820" y="960" font-family="Arial" font-size="14" font-weight="bold" fill="#155724">🌿 절약 팁</text>
  <text x="820" y="975" font-family="Arial" font-size="12" fill="#155724">대파 뿌리를 물에 담가두면 다시 자라납니다!</text>
</svg>