<svg width="1200" height="900" xmlns="http://www.w3.org/2000/svg">
  <!-- Background -->
  <rect width="1200" height="900" fill="#f8f9fa" stroke="#e9ecef" stroke-width="2"/>

  <!-- Header -->
  <rect x="20" y="20" width="1160" height="80" fill="#ffffff" stroke="#dee2e6" stroke-width="1"/>
  <text x="40" y="50" font-family="Arial" font-size="18" font-weight="bold" fill="#333">오늘 뭐 먹지?</text>
  <text x="1020" y="50" font-family="Arial" font-size="14" fill="#333">김민지님</text>
  <rect x="1100" y="35" width="60" height="30" fill="#dc3545" stroke="#c82333" stroke-width="1" rx="4"/>
  <text x="1130" y="55" font-family="Arial" font-size="12" fill="#ffffff" text-anchor="middle">로그아웃</text>

  <!-- Navigation -->
  <rect x="20" y="120" width="1160" height="50" fill="#ffffff" stroke="#dee2e6" stroke-width="1"/>
  <text x="80" y="150" font-family="Arial" font-size="12" fill="#333">홈</text>
  <rect x="140" y="135" width="100" height="20" fill="#007bff" stroke="#0056b3" stroke-width="1" rx="2"/>
  <text x="190" y="150" font-family="Arial" font-size="12" fill="#ffffff" text-anchor="middle">냉장고 관리</text>
  <text x="280" y="150" font-family="Arial" font-size="12" fill="#333">레시피 검색</text>
  <text x="380" y="150" font-family="Arial" font-size="12" fill="#333">커뮤니티</text>
  <text x="480" y="150" font-family="Arial" font-size="12" fill="#333">마이페이지</text>

  <!-- Page Title & Actions -->
  <text x="40" y="210" font-family="Arial" font-size="24" font-weight="bold" fill="#333">내 냉장고</text>
  <rect x="900" y="185" width="120" height="35" fill="#28a745" stroke="#1e7e34" stroke-width="1" rx="4"/>
  <text x="960" y="208" font-family="Arial" font-size="12" fill="#ffffff" text-anchor="middle">재료 추가</text>
  <rect x="1040" y="185" width="120" height="35" fill="#007bff" stroke="#0056b3" stroke-width="1" rx="4"/>
  <text x="1100" y="208" font-family="Arial" font-size="12" fill="#ffffff" text-anchor="middle">바코드 스캔</text>

  <!-- Filter/Sort Options -->
  <rect x="40" y="240" width="1120" height="50" fill="#ffffff" stroke="#dee2e6" stroke-width="1"/>
  <text x="60" y="265" font-family="Arial" font-size="14" fill="#333">필터:</text>
  <rect x="120" y="252" width="80" height="26" fill="#f8f9fa" stroke="#dee2e6" stroke-width="1" rx="4"/>
  <text x="160" y="270" font-family="Arial" font-size="12" fill="#333" text-anchor="middle">전체</text>
  <rect x="220" y="252" width="80" height="26" fill="#ffffff" stroke="#dee2e6" stroke-width="1" rx="4"/>
  <text x="260" y="270" font-family="Arial" font-size="12" fill="#333" text-anchor="middle">유제품</text>
  <rect x="320" y="252" width="80" height="26" fill="#ffffff" stroke="#dee2e6" stroke-width="1" rx="4"/>
  <text x="360" y="270" font-family="Arial" font-size="12" fill="#333" text-anchor="middle">채소</text>
  <rect x="420" y="252" width="80" height="26" fill="#ffffff" stroke="#dee2e6" stroke-width="1" rx="4"/>
  <text x="460" y="270" font-family="Arial" font-size="12" fill="#333" text-anchor="middle">육류</text>

  <text x="600" y="265" font-family="Arial" font-size="14" fill="#333">정렬:</text>
  <rect x="660" y="252" width="100" height="26" fill="#f8f9fa" stroke="#dee2e6" stroke-width="1" rx="4"/>
  <text x="710" y="270" font-family="Arial" font-size="12" fill="#333" text-anchor="middle">유통기한순 ▼</text>

  <!-- Expired Items Alert -->
  <rect x="40" y="310" width="1120" height="40" fill="#fff3cd" stroke="#ffeaa7" stroke-width="1" rx="4"/>
  <rect x="50" y="320" width="20" height="20" fill="#ff6b6b" stroke="#e55656" stroke-width="1" rx="2"/>
  <text x="60" y="335" font-family="Arial" font-size="12" fill="#ffffff" text-anchor="middle">!</text>
  <text x="80" y="335" font-family="Arial" font-size="14" fill="#856404" font-weight="bold">유통기한 임박: 우유(1일), 상추(2일)</text>

  <!-- Ingredients Grid -->
  <text x="40" y="380" font-family="Arial" font-size="18" font-weight="bold" fill="#333">보유 재료 (12개)</text>

  <!-- Ingredient Cards Row 1 -->
  <rect x="40" y="400" width="260" height="100" fill="#ffffff" stroke="#dee2e6" stroke-width="1" rx="8"/>
  <rect x="50" y="410" width="60" height="60" fill="#f8f9fa" stroke="#dee2e6" stroke-width="1" rx="4"/>
  <text x="80" y="445" font-family="Arial" font-size="10" fill="#6c757d" text-anchor="middle">[이미지]</text>
  <text x="130" y="425" font-family="Arial" font-size="16" font-weight="bold" fill="#333">우유</text>
  <text x="130" y="445" font-family="Arial" font-size="12" fill="#6c757d">1L</text>
  <rect x="200" y="410" width="60" height="15" fill="#ff6b6b" rx="2"/>
  <text x="230" y="422" font-family="Arial" font-size="10" fill="#ffffff" text-anchor="middle">1일 남음</text>
  <rect x="200" y="470" width="40" height="20" fill="#007bff" stroke="#0056b3" stroke-width="1" rx="2"/>
  <text x="220" y="485" font-family="Arial" font-size="10" fill="#ffffff" text-anchor="middle">수정</text>
  <rect x="250" y="470" width="40" height="20" fill="#dc3545" stroke="#c82333" stroke-width="1" rx="2"/>
  <text x="270" y="485" font-family="Arial" font-size="10" fill="#ffffff" text-anchor="middle">삭제</text>

  <rect x="320" y="400" width="260" height="100" fill="#ffffff" stroke="#dee2e6" stroke-width="1" rx="8"/>
  <rect x="330" y="410" width="60" height="60" fill="#f8f9fa" stroke="#dee2e6" stroke-width="1" rx="4"/>
  <text x="360" y="445" font-family="Arial" font-size="10" fill="#6c757d" text-anchor="middle">[이미지]</text>
  <text x="410" y="425" font-family="Arial" font-size="16" font-weight="bold" fill="#333">계란</text>
  <text x="410" y="445" font-family="Arial" font-size="12" fill="#6c757d">10개</text>
  <rect x="480" y="410" width="60" height="15" fill="#28a745" rx="2"/>
  <text x="510" y="422" font-family="Arial" font-size="10" fill="#ffffff" text-anchor="middle">7일 남음</text>
  <rect x="480" y="470" width="40" height="20" fill="#007bff" stroke="#0056b3" stroke-width="1" rx="2"/>
  <text x="500" y="485" font-family="Arial" font-size="10" fill="#ffffff" text-anchor="middle">수정</text>
  <rect x="530" y="470" width="40" height="20" fill="#dc3545" stroke="#c82333" stroke-width="1" rx="2"/>
  <text x="550" y="485" font-family="Arial" font-size="10" fill="#ffffff" text-anchor="middle">삭제</text>

  <rect x="600" y="400" width="260" height="100" fill="#ffffff" stroke="#dee2e6" stroke-width="1" rx="8"/>
  <rect x="610" y="410" width="60" height="60" fill="#f8f9fa" stroke="#dee2e6" stroke-width="1" rx="4"/>
  <text x="640" y="445" font-family="Arial" font-size="10" fill="#6c757d" text-anchor="middle">[이미지]</text>
  <text x="690" y="425" font-family="Arial" font-size="16" font-weight="bold" fill="#333">상추</text>
  <text x="690" y="445" font-family="Arial" font-size="12" fill="#6c757d">1봉지</text>
  <rect x="760" y="410" width="60" height="15" fill="#ffc107" rx="2"/>
  <text x="790" y="422" font-family="Arial" font-size="10" fill="#ffffff" text-anchor="middle">2일 남음</text>
  <rect x="760" y="470" width="40" height="20" fill="#007bff" stroke="#0056b3" stroke-width="1" rx="2"/>
  <text x="780" y="485" font-family="Arial" font-size="10" fill="#ffffff" text-anchor="middle">수정</text>
  <rect x="810" y="470" width="40" height="20" fill="#dc3545" stroke="#c82333" stroke-width="1" rx="2"/>
  <text x="830" y="485" font-family="Arial" font-size="10" fill="#ffffff" text-anchor="middle">삭제</text>

  <rect x="880" y="400" width="260" height="100" fill="#ffffff" stroke="#dee2e6" stroke-width="1" rx="8"/>
  <rect x="890" y="410" width="60" height="60" fill="#f8f9fa" stroke="#dee2e6" stroke-width="1" rx="4"/>
  <text x="920" y="445" font-family="Arial" font-size="10" fill="#6c757d" text-anchor="middle">[이미지]</text>
  <text x="970" y="425" font-family="Arial" font-size="16" font-weight="bold" fill="#333">닭가슴살</text>
  <text x="970" y="445" font-family="Arial" font-size="12" fill="#6c757d">200g</text>
  <rect x="1040" y="410" width="60" height="15" fill="#28a745" rx="2"/>
  <text x="1070" y="422" font-family="Arial" font-size="10" fill="#ffffff" text-anchor="middle">5일 남음</text>
  <rect x="1040" y="470" width="40" height="20" fill="#007bff" stroke="#0056b3" stroke-width="1" rx="2"/>
  <text x="1060" y="485" font-family="Arial" font-size="10" fill="#ffffff" text-anchor="middle">수정</text>
  <rect x="1090" y="470" width="40" height="20" fill="#dc3545" stroke="#c82333" stroke-width="1" rx="2"/>
  <text x="1110" y="485" font-family="Arial" font-size="10" fill="#ffffff" text-anchor="middle">삭제</text>

  <!-- Ingredient Cards Row 2 -->
  <rect x="40" y="520" width="260" height="100" fill="#ffffff" stroke="#dee2e6" stroke-width="1" rx="8"/>
  <rect x="50" y="530" width="60" height="60" fill="#f8f9fa" stroke="#dee2e6" stroke-width="1" rx="4"/>
  <text x="80" y="565" font-family="Arial" font-size="10" fill="#6c757d" text-anchor="middle">[이미지]</text>
  <text x="130" y="545" font-family="Arial" font-size="16" font-weight="bold" fill="#333">양파</text>
  <text x="130" y="565" font-family="Arial" font-size="12" fill="#6c757d">2개</text>
  <rect x="200" y="530" width="60" height="15" fill="#28a745" rx="2"/>
  <text x="230" y="542" font-family="Arial" font-size="10" fill="#ffffff" text-anchor="middle">10일 남음</text>
  <rect x="200" y="590" width="40" height="20" fill="#007bff" stroke="#0056b3" stroke-width="1" rx="2"/>
  <text x="220" y="605" font-family="Arial" font-size="10" fill="#ffffff" text-anchor="middle">수정</text>
  <rect x="250" y="590" width="40" height="20" fill="#dc3545" stroke="#c82333" stroke-width="1" rx="2"/>
  <text x="270" y="605" font-family="Arial" font-size="10" fill="#ffffff" text-anchor="middle">삭제</text>

  <rect x="320" y="520" width="260" height="100" fill="#ffffff" stroke="#dee2e6" stroke-width="1" rx="8"/>
  <rect x="330" y="530" width="60" height="60" fill="#f8f9fa" stroke="#dee2e6" stroke-width="1" rx="4"/>
  <text x="360" y="565" font-family="Arial" font-size="10" fill="#6c757d" text-anchor="middle">[이미지]</text>
  <text x="410" y="545" font-family="Arial" font-size="16" font-weight="bold" fill="#333">토마토</text>
  <text x="410" y="565" font-family="Arial" font-size="12" fill="#6c757d">3개</text>
  <rect x="480" y="530" width="60" height="15" fill="#28a745" rx="2"/>
  <text x="510" y="542" font-family="Arial" font-size="10" fill="#ffffff" text-anchor="middle">4일 남음</text>
  <rect x="480" y="590" width="40" height="20" fill="#007bff" stroke="#0056b3" stroke-width="1" rx="2"/>
  <text x="500" y="605" font-family="Arial" font-size="10" fill="#ffffff" text-anchor="middle">수정</text>
  <rect x="530" y="590" width="40" height="20" fill="#dc3545" stroke="#c82333" stroke-width="1" rx="2"/>
  <text x="550" y="605" font-family="Arial" font-size="10" fill="#ffffff" text-anchor="middle">삭제</text>

  <rect x="600" y="520" width="260" height="100" fill="#ffffff" stroke="#dee2e6" stroke-width="1" rx="8"/>
  <rect x="610" y="530" width="60" height="60" fill="#f8f9fa" stroke="#dee2e6" stroke-width="1" rx="4"/>
  <text x="640" y="565" font-family="Arial" font-size="10" fill="#6c757d" text-anchor="middle">[이미지]</text>
  <text x="690" y="545" font-family="Arial" font-size="16" font-weight="bold" fill="#333">마늘</text>
  <text x="690" y="565" font-family="Arial" font-size="12" fill="#6c757d">1망</text>
  <rect x="760" y="530" width="60" height="15" fill="#28a745" rx="2"/>
  <text x="790" y="542" font-family="Arial" font-size="10" fill="#ffffff" text-anchor="middle">15일 남음</text>
  <rect x="760" y="590" width="40" height="20" fill="#007bff" stroke="#0056b3" stroke-width="1" rx="2"/>
  <text x="780" y="605" font-family="Arial" font-size="10" fill="#ffffff" text-anchor="middle">수정</text>
  <rect x="810" y="590" width="40" height="20" fill="#dc3545" stroke="#c82333" stroke-width="1" rx="2"/>
  <text x="830" y="605" font-family="Arial" font-size="10" fill="#ffffff" text-anchor="middle">삭제</text>

  <rect x="880" y="520" width="260" height="100" fill="#ffffff" stroke="#dee2e6" stroke-width="1" rx="8"/>
  <rect x="890" y="530" width="60" height="60" fill="#f8f9fa" stroke="#dee2e6" stroke-width="1" rx="4"/>
  <text x="920" y="565" font-family="Arial" font-size="10" fill="#6c757d" text-anchor="middle">[이미지]</text>
  <text x="970" y="545" font-family="Arial" font-size="16" font-weight="bold" fill="#333">김치</text>
  <text x="970" y="565" font-family="Arial" font-size="12" fill="#6c757d">1포기</text>
  <rect x="1040" y="530" width="60" height="15" fill="#28a745" rx="2"/>
  <text x="1070" y="542" font-family="Arial" font-size="10" fill="#ffffff" text-anchor="middle">20일 남음</text>
  <rect x="1040" y="590" width="40" height="20" fill="#007bff" stroke="#0056b3" stroke-width="1" rx="2"/>
  <text x="1060" y="605" font-family="Arial" font-size="10" fill="#ffffff" text-anchor="middle">수정</text>
  <rect x="1090" y="590" width="40" height="20" fill="#dc3545" stroke="#c82333" stroke-width="1" rx="2"/>
  <text x="1110" y="605" font-family="Arial" font-size="10" fill="#ffffff" text-anchor="middle">삭제</text>

  <!-- Recipe Suggestions -->
  <text x="40" y="670" font-family="Arial" font-size="18" font-weight="bold" fill="#333">이 재료로 만들 수 있는 레시피</text>

  <!-- Recipe Suggestion Cards -->
  <rect x="40" y="690" width="350" height="80" fill="#ffffff" stroke="#dee2e6" stroke-width="1" rx="8"/>
  <rect x="50" y="700" width="60" height="60" fill="#f8f9fa" stroke="#dee2e6" stroke-width="1" rx="4"/>
  <text x="80" y="735" font-family="Arial" font-size="10" fill="#6c757d" text-anchor="middle">[이미지]</text>
  <text x="130" y="715" font-family="Arial" font-size="16" font-weight="bold" fill="#333">김치볶음밥</text>
  <text x="130" y="735" font-family="Arial" font-size="12" fill="#6c757d">김치, 계란, 마늘 사용</text>
  <text x="130" y="750" font-family="Arial" font-size="12" fill="#28a745">모든 재료 보유 ✓</text>
  <rect x="320" y="715" width="60" height="25" fill="#007bff" stroke="#0056b3" stroke-width="1" rx="4"/>
  <text x="350" y="732" font-family="Arial" font-size="11" fill="#ffffff" text-anchor="middle">레시피 보기</text>

  <rect x="410" y="690" width="350" height="80" fill="#ffffff" stroke="#dee2e6" stroke-width="1" rx="8"/>
  <rect x="420" y="700" width="60" height="60" fill="#f8f9fa" stroke="#dee2e6" stroke-width="1" rx="4"/>
  <text x="450" y="735" font-family="Arial" font-size="10" fill="#6c757d" text-anchor="middle">[이미지]</text>
  <text x="500" y="715" font-family="Arial" font-size="16" font-weight="bold" fill="#333">치킨 샐러드</text>
  <text x="500" y="735" font-family="Arial" font-size="12" fill="#6c757d">닭가슴살, 상추, 토마토 사용</text>
  <text x="500" y="750" font-family="Arial" font-size="12" fill="#28a745">모든 재료 보유 ✓</text>
  <rect x="690" y="715" width="60" height="25" fill="#007bff" stroke="#0056b3" stroke-width="1" rx="4"/>
  <text x="720" y="732" font-family="Arial" font-size="11" fill="#ffffff" text-anchor="middle">레시피 보기</text>

  <rect x="780" y="690" width="350" height="80" fill="#ffffff" stroke="#dee2e6" stroke-width="1" rx="8"/>
  <rect x="790" y="700" width="60" height="60" fill="#f8f9fa" stroke="#dee2e6" stroke-width="1" rx="4"/>
  <text x="820" y="735" font-family="Arial" font-size="10" fill="#6c757d" text-anchor="middle">[이미지]</text>
  <text x="870" y="715" font-family="Arial" font-size="16" font-weight="bold" fill="#333">오믈렛</text>
  <text x="870" y="735" font-family="Arial" font-size="12" fill="#6c757d">계란, 우유, 양파 사용</text>
  <text x="870" y="750" font-family="Arial" font-size="12" fill="#ffc107">재료 1개 부족 (치즈)</text>
  <rect x="1060" y="715" width="60" height="25" fill="#6c757d" stroke="#495057" stroke-width="1" rx="4"/>
  <text x="1090" y="732" font-family="Arial" font-size="11" fill="#ffffff" text-anchor="middle">구매하기</text>

  <!-- Bottom Actions -->
  <rect x="40" y="800" width="1120" height="60" fill="#ffffff" stroke="#dee2e6" stroke-width="1" rx="8"/>
  <rect x="60" y="815" width="150" height="30" fill="#28a745" stroke="#1e7e34" stroke-width="1" rx="4"/>
  <text x="135" y="835" font-family="Arial" font-size="12" fill="#ffffff" text-anchor="middle">일괄 삭제 (만료 재료)</text>
  <rect x="230" y="815" width="150" height="30" fill="#007bff" stroke="#0056b3" stroke-width="1" rx="4"/>
  <text x="305" y="835" font-family="Arial" font-size="12" fill="#ffffff" text-anchor="middle">쇼핑 리스트 생성</text>
  <rect x="960" y="815" width="150" height="30" fill="#ffc107" stroke="#e0a800" stroke-width="1" rx="4"/>
  <text x="1035" y="835" font-family="Arial" font-size="12" fill="#ffffff" text-anchor="middle">알림 설정</text>
</svg>