<?xml version="1.0" encoding="UTF-8"?>
<svg width="1200" height="800" xmlns="http://www.w3.org/2000/svg">
  <!-- Background -->
  <rect width="1200" height="800" fill="#f8f9fa" stroke="#e9ecef" stroke-width="2"/>

  <!-- Header -->
  <rect x="20" y="20" width="1160" height="80" fill="#ffffff" stroke="#dee2e6" stroke-width="1"/>
  <text x="40" y="50" font-family="Arial" font-size="18" font-weight="bold" fill="#333">오늘 뭐 먹지?</text>
  <rect x="900" y="35" width="100" height="30" fill="#007bff" stroke="#0056b3" stroke-width="1" rx="4"/>
  <text x="940" y="55" font-family="Arial" font-size="12" fill="#ffffff" text-anchor="middle">로그인</text>
  <rect x="1020" y="35" width="100" height="30" fill="#28a745" stroke="#1e7e34" stroke-width="1" rx="4"/>
  <text x="1070" y="55" font-family="Arial" font-size="12" fill="#ffffff" text-anchor="middle">회원가입</text>

  <!-- Main Navigation -->
  <rect x="20" y="120" width="1160" height="50" fill="#ffffff" stroke="#dee2e6" stroke-width="1"/>
  <rect x="40" y="135" width="80" height="20" fill="#007bff" stroke="#0056b3" stroke-width="1" rx="2"/>
  <text x="80" y="150" font-family="Arial" font-size="12" fill="#ffffff" text-anchor="middle">홈</text>
  <text x="160" y="150" font-family="Arial" font-size="12" fill="#333">냉장고 관리</text>
  <text x="260" y="150" font-family="Arial" font-size="12" fill="#333">레시피 검색</text>
  <text x="360" y="150" font-family="Arial" font-size="12" fill="#333">커뮤니티</text>
  <text x="460" y="150" font-family="Arial" font-size="12" fill="#333">마이페이지</text>

  <!-- Hero Section -->
  <rect x="20" y="190" width="1160" height="200" fill="#ffffff" stroke="#dee2e6" stroke-width="1"/>
  <text x="600" y="230" font-family="Arial" font-size="24" font-weight="bold" fill="#333" text-anchor="middle">냉장고 재료로 만들 수 있는 레시피를 찾아보세요!</text>
  <rect x="450" y="260" width="300" height="40" fill="#f8f9fa" stroke="#dee2e6" stroke-width="1" rx="4"/>
  <text x="465" y="285" font-family="Arial" font-size="14" fill="#6c757d">재료명을 입력하세요...</text>
  <rect x="760" y="260" width="80" height="40" fill="#007bff" stroke="#0056b3" stroke-width="1" rx="4"/>
  <text x="800" y="285" font-family="Arial" font-size="12" fill="#ffffff" text-anchor="middle">검색</text>

  <!-- Quick Actions -->
  <text x="40" y="430" font-family="Arial" font-size="18" font-weight="bold" fill="#333">빠른 시작</text>

  <!-- Quick Action Cards -->
  <rect x="40" y="450" width="270" height="120" fill="#ffffff" stroke="#dee2e6" stroke-width="1" rx="8"/>
  <rect x="60" y="470" width="40" height="40" fill="#28a745" stroke="#1e7e34" stroke-width="1" rx="4"/>
  <text x="80" y="495" font-family="Arial" font-size="20" fill="#ffffff" text-anchor="middle">+</text>
  <text x="120" y="485" font-family="Arial" font-size="16" font-weight="bold" fill="#333">재료 등록</text>
  <text x="120" y="505" font-family="Arial" font-size="12" fill="#6c757d">바코드 스캔 또는 직접 입력</text>

  <rect x="330" y="450" width="270" height="120" fill="#ffffff" stroke="#dee2e6" stroke-width="1" rx="8"/>
  <rect x="350" y="470" width="40" height="40" fill="#007bff" stroke="#0056b3" stroke-width="1" rx="4"/>
  <text x="370" y="495" font-family="Arial" font-size="20" fill="#ffffff" text-anchor="middle">🔍</text>
  <text x="410" y="485" font-family="Arial" font-size="16" font-weight="bold" fill="#333">레시피 추천</text>
  <text x="410" y="505" font-family="Arial" font-size="12" fill="#6c757d">보유 재료 기반 추천</text>

  <rect x="620" y="450" width="270" height="120" fill="#ffffff" stroke="#dee2e6" stroke-width="1" rx="8"/>
  <rect x="640" y="470" width="40" height="40" fill="#ffc107" stroke="#e0a800" stroke-width="1" rx="4"/>
  <text x="660" y="495" font-family="Arial" font-size="20" fill="#ffffff" text-anchor="middle">👥</text>
  <text x="700" y="485" font-family="Arial" font-size="16" font-weight="bold" fill="#333">커뮤니티</text>
  <text x="700" y="505" font-family="Arial" font-size="12" fill="#6c757d">요리 후기 및 팁 공유</text>

  <rect x="910" y="450" width="270" height="120" fill="#ffffff" stroke="#dee2e6" stroke-width="1" rx="8"/>
  <rect x="930" y="470" width="40" height="40" fill="#dc3545" stroke="#c82333" stroke-width="1" rx="4"/>
  <text x="950" y="495" font-family="Arial" font-size="20" fill="#ffffff" text-anchor="middle">📊</text>
  <text x="990" y="485" font-family="Arial" font-size="16" font-weight="bold" fill="#333">통계</text>
  <text x="990" y="505" font-family="Arial" font-size="12" fill="#6c757d">요리 기록 및 절약 현황</text>

  <!-- Today's Recommendations -->
  <text x="40" y="610" font-family="Arial" font-size="18" font-weight="bold" fill="#333">오늘의 추천 레시피</text>

  <!-- Recipe Cards -->
  <rect x="40" y="630" width="180" height="140" fill="#ffffff" stroke="#dee2e6" stroke-width="1" rx="8"/>
  <rect x="50" y="640" width="160" height="80" fill="#f8f9fa" stroke="#dee2e6" stroke-width="1" rx="4"/>
  <text x="130" y="685" font-family="Arial" font-size="12" fill="#6c757d" text-anchor="middle">[이미지]</text>
  <text x="130" y="740" font-family="Arial" font-size="14" font-weight="bold" fill="#333" text-anchor="middle">김치볶음밥</text>
  <text x="130" y="755" font-family="Arial" font-size="12" fill="#6c757d" text-anchor="middle">15분 | 쉬움</text>

  <rect x="240" y="630" width="180" height="140" fill="#ffffff" stroke="#dee2e6" stroke-width="1" rx="8"/>
  <rect x="250" y="640" width="160" height="80" fill="#f8f9fa" stroke="#dee2e6" stroke-width="1" rx="4"/>
  <text x="330" y="685" font-family="Arial" font-size="12" fill="#6c757d" text-anchor="middle">[이미지]</text>
  <text x="330" y="740" font-family="Arial" font-size="14" font-weight="bold" fill="#333" text-anchor="middle">계란찜</text>
  <text x="330" y="755" font-family="Arial" font-size="12" fill="#6c757d" text-anchor="middle">10분 | 쉬움</text>

  <rect x="440" y="630" width="180" height="140" fill="#ffffff" stroke="#dee2e6" stroke-width="1" rx="8"/>
  <rect x="450" y="640" width="160" height="80" fill="#f8f9fa" stroke="#dee2e6" stroke-width="1" rx="4"/>
  <text x="530" y="685" font-family="Arial" font-size="12" fill="#6c757d" text-anchor="middle">[이미지]</text>
  <text x="530" y="740" font-family="Arial" font-size="14" font-weight="bold" fill="#333" text-anchor="middle">토마토 파스타</text>
  <text x="530" y="755" font-family="Arial" font-size="12" fill="#6c757d" text-anchor="middle">25분 | 보통</text>

  <rect x="640" y="630" width="180" height="140" fill="#ffffff" stroke="#dee2e6" stroke-width="1" rx="8"/>
  <rect x="650" y="640" width="160" height="80" fill="#f8f9fa" stroke="#dee2e6" stroke-width="1" rx="4"/>
  <text x="730" y="685" font-family="Arial" font-size="12" fill="#6c757d" text-anchor="middle">[이미지]</text>
  <text x="730" y="740" font-family="Arial" font-size="14" font-weight="bold" fill="#333" text-anchor="middle">치킨 샐러드</text>
  <text x="730" y="755" font-family="Arial" font-size="12" fill="#6c757d" text-anchor="middle">20분 | 쉬움</text>

  <rect x="840" y="630" width="180" height="140" fill="#ffffff" stroke="#dee2e6" stroke-width="1" rx="8"/>
  <rect x="850" y="640" width="160" height="80" fill="#f8f9fa" stroke="#dee2e6" stroke-width="1" rx="4"/>
  <text x="930" y="685" font-family="Arial" font-size="12" fill="#6c757d" text-anchor="middle">[이미지]</text>
  <text x="930" y="740" font-family="Arial" font-size="14" font-weight="bold" fill="#333" text-anchor="middle">된장찌개</text>
  <text x="930" y="755" font-family="Arial" font-size="12" fill="#6c757d" text-anchor="middle">30분 | 보통</text>

  <rect x="1040" y="630" width="140" height="140" fill="#f8f9fa" stroke="#dee2e6" stroke-width="1" stroke-dasharray="5,5" rx="8"/>
  <text x="1110" y="705" font-family="Arial" font-size="14" fill="#6c757d" text-anchor="middle">더보기</text>
</svg>